# xmcd
#
# Track frame offsets:
# 150
# 14434
# 28974
# 52988
# 70348
# 84545
# 100832
# 116320
# 131297
# 148513
# 155530
# 170672
# 184461
# 198651
# 211263
# 225739
# 240079
# 255980
# 270876
#
# Disc length: 3897 seconds
#
#
# Revision: 3
# Processed by: cddbd v1.5.2PL0 Copyright (c) Steve Scherf et al.
# Submitted via: FreeRIP 2.945 
#
DISCID=fd0f3713
DTITLE=Bear-G1999 - Darwins-Radio14
DYEAR=1999
DGENRE=Space
TTITLE0=DR 1401
TTITLE1=DR 1402
TTITLE2=DR 1403
TTITLE3=DR 1404
TTITLE4=DR 1405
TTITLE5=DR 1406
TTITLE6=DR 1407
TTITLE7=DR 1408
TTITLE8=DR 1409
TTITLE9=DR 1410
TTITLE10=DR 1411
TTITLE11=DR 1412
TTITLE12=DR 1413
TTITLE13=DR 1414
TTITLE14=DR 1415
TTITLE15=DR 1416
TTITLE16=DR 1417
TTITLE17=DR 1418
TTITLE18=DR 1419
EXTD=Darwin's Radio by Greg Bear. Unabridged. \nPerformed by George Guidall. 15 CDs\nrecorded books Space
EXTT0=
EXTT1=
EXTT2=
EXTT3=
EXTT4=
EXTT5=
EXTT6=
EXTT7=
EXTT8=
EXTT9=
EXTT10=
EXTT11=
EXTT12=
EXTT13=
EXTT14=
EXTT15=
EXTT16=
EXTT17=
EXTT18=
PLAYORDER=
